<svg width="96" height="46" viewBox="0 0 96 46" fill="none" xmlns="http://www.w3.org/2000/svg">
<path d="M21.92 20L15.032 12.368V20H12.848V3.272H15.032V11.024L21.944 3.272H24.704L17.12 11.648L24.776 20H21.92ZM26.3992 13.376C26.3992 12.032 26.6712 10.856 27.2152 9.848C27.7592 8.824 28.5032 8.032 29.4472 7.472C30.4072 6.912 31.4712 6.632 32.6392 6.632C33.7912 6.632 34.7912 6.88 35.6392 7.376C36.4872 7.872 37.1192 8.496 37.5352 9.248V6.848H39.7432V20H37.5352V17.552C37.1032 18.32 36.4552 18.96 35.5912 19.472C34.7432 19.968 33.7512 20.216 32.6152 20.216C31.4472 20.216 30.3912 19.928 29.4472 19.352C28.5032 18.776 27.7592 17.968 27.2152 16.928C26.6712 15.888 26.3992 14.704 26.3992 13.376ZM37.5352 13.4C37.5352 12.408 37.3352 11.544 36.9352 10.808C36.5352 10.072 35.9912 9.512 35.3032 9.128C34.6312 8.728 33.8872 8.528 33.0712 8.528C32.2552 8.528 31.5112 8.72 30.8392 9.104C30.1672 9.488 29.6312 10.048 29.2312 10.784C28.8312 11.52 28.6312 12.384 28.6312 13.376C28.6312 14.384 28.8312 15.264 29.2312 16.016C29.6312 16.752 30.1672 17.32 30.8392 17.72C31.5112 18.104 32.2552 18.296 33.0712 18.296C33.8872 18.296 34.6312 18.104 35.3032 17.72C35.9912 17.32 36.5352 16.752 36.9352 16.016C37.3352 15.264 37.5352 14.392 37.5352 13.4ZM45.6179 8.984C46.0019 8.232 46.5459 7.648 47.2499 7.232C47.9699 6.816 48.8419 6.608 49.8659 6.608V8.864H49.2899C46.8419 8.864 45.6179 10.192 45.6179 12.848V20H43.4339V6.848H45.6179V8.984ZM53.5151 4.712C53.0991 4.712 52.7471 4.568 52.4591 4.28C52.1711 3.992 52.0271 3.64 52.0271 3.224C52.0271 2.808 52.1711 2.456 52.4591 2.168C52.7471 1.88 53.0991 1.736 53.5151 1.736C53.9151 1.736 54.2511 1.88 54.5231 2.168C54.8111 2.456 54.9551 2.808 54.9551 3.224C54.9551 3.64 54.8111 3.992 54.5231 4.28C54.2511 4.568 53.9151 4.712 53.5151 4.712ZM54.5711 6.848V20H52.3871V6.848H54.5711ZM64.7013 6.608C66.3013 6.608 67.5973 7.096 68.5893 8.072C69.5813 9.032 70.0773 10.424 70.0773 12.248V20H67.9173V12.56C67.9173 11.248 67.5893 10.248 66.9333 9.56C66.2773 8.856 65.3813 8.504 64.2453 8.504C63.0933 8.504 62.1733 8.864 61.4853 9.584C60.8133 10.304 60.4773 11.352 60.4773 12.728V20H58.2933V6.848H60.4773V8.72C60.9093 8.048 61.4933 7.528 62.2293 7.16C62.9813 6.792 63.8053 6.608 64.7013 6.608ZM85.6449 12.92C85.6449 13.336 85.6209 13.776 85.5729 14.24H75.0609C75.1409 15.536 75.5809 16.552 76.3809 17.288C77.1969 18.008 78.1809 18.368 79.3329 18.368C80.2769 18.368 81.0609 18.152 81.6849 17.72C82.3249 17.272 82.7729 16.68 83.0289 15.944H85.3809C85.0289 17.208 84.3249 18.24 83.2689 19.04C82.2129 19.824 80.9009 20.216 79.3329 20.216C78.0849 20.216 76.9649 19.936 75.9729 19.376C74.9969 18.816 74.2289 18.024 73.6689 17C73.1089 15.96 72.8289 14.76 72.8289 13.4C72.8289 12.04 73.1009 10.848 73.6449 9.824C74.1889 8.8 74.9489 8.016 75.9249 7.472C76.9169 6.912 78.0529 6.632 79.3329 6.632C80.5809 6.632 81.6849 6.904 82.6449 7.448C83.6049 7.992 84.3409 8.744 84.8529 9.704C85.3809 10.648 85.6449 11.72 85.6449 12.92ZM83.3889 12.464C83.3889 11.632 83.2049 10.92 82.8369 10.328C82.4689 9.72 81.9649 9.264 81.3249 8.96C80.7009 8.64 80.0049 8.48 79.2369 8.48C78.1329 8.48 77.1889 8.832 76.4049 9.536C75.6369 10.24 75.1969 11.216 75.0849 12.464H83.3889ZM29.816 24.392V41H27.632V28.616L22.112 41H20.576L15.032 28.592V41H12.848V24.392H15.2L21.344 38.12L27.488 24.392H29.816ZM39.2559 41.216C38.0239 41.216 36.9039 40.936 35.8959 40.376C34.9039 39.816 34.1199 39.024 33.5439 38C32.9839 36.96 32.7039 35.76 32.7039 34.4C32.7039 33.056 32.9919 31.872 33.5679 30.848C34.1599 29.808 34.9599 29.016 35.9679 28.472C36.9759 27.912 38.1039 27.632 39.3519 27.632C40.5999 27.632 41.7279 27.912 42.7359 28.472C43.7439 29.016 44.5359 29.8 45.1119 30.824C45.7039 31.848 45.9999 33.04 45.9999 34.4C45.9999 35.76 45.6959 36.96 45.0879 38C44.4959 39.024 43.6879 39.816 42.6639 40.376C41.6399 40.936 40.5039 41.216 39.2559 41.216ZM39.2559 39.296C40.0399 39.296 40.7759 39.112 41.4639 38.744C42.1519 38.376 42.7039 37.824 43.1199 37.088C43.5519 36.352 43.7679 35.456 43.7679 34.4C43.7679 33.344 43.5599 32.448 43.1439 31.712C42.7279 30.976 42.1839 30.432 41.5119 30.08C40.8399 29.712 40.1119 29.528 39.3279 29.528C38.5279 29.528 37.7919 29.712 37.1199 30.08C36.4639 30.432 35.9359 30.976 35.5359 31.712C35.1359 32.448 34.9359 33.344 34.9359 34.4C34.9359 35.472 35.1279 36.376 35.5119 37.112C35.9119 37.848 36.4399 38.4 37.0959 38.768C37.7519 39.12 38.4719 39.296 39.2559 39.296ZM51.0554 29.984C51.4394 29.232 51.9834 28.648 52.6874 28.232C53.4074 27.816 54.2794 27.608 55.3034 27.608V29.864H54.7274C52.2794 29.864 51.0554 31.192 51.0554 33.848V41H48.8714V27.848H51.0554V29.984ZM57.0086 34.376C57.0086 33.032 57.2806 31.856 57.8246 30.848C58.3686 29.824 59.1126 29.032 60.0566 28.472C61.0166 27.912 62.0806 27.632 63.2486 27.632C64.4006 27.632 65.4006 27.88 66.2486 28.376C67.0966 28.872 67.7286 29.496 68.1446 30.248V27.848H70.3526V41H68.1446V38.552C67.7126 39.32 67.0646 39.96 66.2006 40.472C65.3526 40.968 64.3606 41.216 63.2246 41.216C62.0566 41.216 61.0006 40.928 60.0566 40.352C59.1126 39.776 58.3686 38.968 57.8246 37.928C57.2806 36.888 57.0086 35.704 57.0086 34.376ZM68.1446 34.4C68.1446 33.408 67.9446 32.544 67.5446 31.808C67.1446 31.072 66.6006 30.512 65.9126 30.128C65.2406 29.728 64.4966 29.528 63.6806 29.528C62.8646 29.528 62.1206 29.72 61.4486 30.104C60.7766 30.488 60.2406 31.048 59.8406 31.784C59.4406 32.52 59.2406 33.384 59.2406 34.376C59.2406 35.384 59.4406 36.264 59.8406 37.016C60.2406 37.752 60.7766 38.32 61.4486 38.72C62.1206 39.104 62.8646 39.296 63.6806 39.296C64.4966 39.296 65.2406 39.104 65.9126 38.72C66.6006 38.32 67.1446 37.752 67.5446 37.016C67.9446 36.264 68.1446 35.392 68.1446 34.4ZM75.1713 25.712C74.7553 25.712 74.4033 25.568 74.1153 25.28C73.8273 24.992 73.6833 24.64 73.6833 24.224C73.6833 23.808 73.8273 23.456 74.1153 23.168C74.4033 22.88 74.7553 22.736 75.1713 22.736C75.5713 22.736 75.9073 22.88 76.1793 23.168C76.4673 23.456 76.6113 23.808 76.6113 24.224C76.6113 24.64 76.4673 24.992 76.1793 25.28C75.9073 25.568 75.5713 25.712 75.1713 25.712ZM76.2273 27.848V41H74.0433V27.848H76.2273ZM84.6056 41.216C83.5976 41.216 82.6936 41.048 81.8936 40.712C81.0936 40.36 80.4616 39.88 79.9976 39.272C79.5336 38.648 79.2776 37.936 79.2296 37.136H81.4856C81.5496 37.792 81.8536 38.328 82.3976 38.744C82.9576 39.16 83.6856 39.368 84.5816 39.368C85.4136 39.368 86.0696 39.184 86.5496 38.816C87.0296 38.448 87.2696 37.984 87.2696 37.424C87.2696 36.848 87.0136 36.424 86.5016 36.152C85.9896 35.864 85.1976 35.584 84.1256 35.312C83.1496 35.056 82.3496 34.8 81.7256 34.544C81.1176 34.272 80.5896 33.88 80.1416 33.368C79.7096 32.84 79.4936 32.152 79.4936 31.304C79.4936 30.632 79.6936 30.016 80.0936 29.456C80.4936 28.896 81.0616 28.456 81.7976 28.136C82.5336 27.8 83.3736 27.632 84.3176 27.632C85.7736 27.632 86.9496 28 87.8456 28.736C88.7416 29.472 89.2216 30.48 89.2856 31.76H87.1016C87.0536 31.072 86.7736 30.52 86.2616 30.104C85.7656 29.688 85.0936 29.48 84.2456 29.48C83.4616 29.48 82.8376 29.648 82.3736 29.984C81.9096 30.32 81.6776 30.76 81.6776 31.304C81.6776 31.736 81.8136 32.096 82.0856 32.384C82.3736 32.656 82.7256 32.88 83.1416 33.056C83.5736 33.216 84.1656 33.4 84.9176 33.608C85.8616 33.864 86.6296 34.12 87.2216 34.376C87.8136 34.616 88.3176 34.984 88.7336 35.48C89.1656 35.976 89.3896 36.624 89.4056 37.424C89.4056 38.144 89.2056 38.792 88.8056 39.368C88.4056 39.944 87.8376 40.4 87.1016 40.736C86.3816 41.056 85.5496 41.216 84.6056 41.216Z" fill="#15162F"/>
<line x1="2" x2="2" y2="46" stroke="#5280E2" stroke-width="4"/>
</svg>
